<svg width="38" height="38" viewBox="0 0 38 38" fill="none" xmlns="http://www.w3.org/2000/svg">
<path fill-rule="evenodd" clip-rule="evenodd" d="M13.6939 9.56644C14.1143 9.5225 14.5408 9.5 14.9723 9.5C20.7444 9.5 25.6097 13.5253 27.1 19.0165C27.2192 19.0087 27.3392 19.0037 27.4599 19.0014C27.4108 19.0006 27.3617 19.0001 27.3125 19.0001L27.2726 19.0002L27.2726 19H29.0937H29.1652V18.9994C31.4277 18.9612 33.25 17.1153 33.25 14.8438C33.25 12.5483 31.3891 10.6875 29.0937 10.6875C28.323 10.6875 27.6013 10.8973 26.9825 11.2628C26.9807 10.5994 26.88 9.95912 26.6942 9.35614C25.7689 6.67549 23.2236 4.75 20.2285 4.75C17.1556 4.75 14.5562 6.77677 13.6939 9.56644ZM32.2723 20.5507C34.3023 22.0588 35.625 24.5255 35.625 27.3125C35.625 31.9033 32.0359 35.625 27.6085 35.625C27.5094 35.625 27.4107 35.6231 27.3125 35.6194V35.625H15.161V35.6236C15.0982 35.6245 15.0353 35.625 14.9723 35.625C8.01502 35.625 2.375 29.7767 2.375 22.5625C2.375 16.737 6.05261 11.8022 11.1318 10.1182C11.8357 5.72857 15.6405 2.375 20.2285 2.375C24.1649 2.375 27.5247 4.84362 28.8442 8.31718C28.927 8.31407 29.0102 8.3125 29.0937 8.3125C32.7008 8.3125 35.625 11.2366 35.625 14.8438C35.625 17.297 34.2724 19.4343 32.2723 20.5507ZM27.3125 33.25H15.161H15.0243V33.2499L14.9723 33.25C9.40713 33.25 4.75 28.5469 4.75 22.5625C4.75 16.5781 9.40713 11.875 14.9723 11.875C19.6933 11.875 23.7609 15.2594 24.8863 19.9395L24.8898 19.938C25.0488 20.5874 25.1501 21.2606 25.1879 21.9515C25.9278 21.5806 26.751 21.375 27.6085 21.375C30.6438 21.375 33.25 23.9514 33.25 27.3125C33.25 30.65 30.6802 33.2138 27.6723 33.2496V33.25H27.3125Z" fill="#C0F6FF"/>
</svg>
