<svg width="38" height="38" viewBox="0 0 38 38" fill="none" xmlns="http://www.w3.org/2000/svg">
<path fill-rule="evenodd" clip-rule="evenodd" d="M33.2499 20.3159C33.2499 23.0149 31.4944 25.2794 29.0938 26.0424V28.4999C32.8286 27.6782 35.6249 24.3261 35.6249 20.3159C35.6249 15.6895 31.9033 11.9391 27.3124 11.9391C27.0769 11.9391 26.8437 11.949 26.6131 11.9683C24.9096 7.07289 20.2835 3.5625 14.8437 3.5625C7.95745 3.5625 2.375 9.18813 2.375 16.1277C2.375 21.3724 5.56357 25.8665 10.0938 27.749V25.1206C6.91853 23.4079 4.75 20.0308 4.75 16.1277C4.75 10.4825 9.28634 5.9375 14.8437 5.9375C19.1466 5.9375 22.8373 8.66206 24.2844 12.5123L24.2942 12.5084C24.5687 13.2515 24.7611 14.0355 24.8602 14.849C25.6089 14.5052 26.4397 14.3141 27.3124 14.3141C30.5744 14.3141 33.2499 16.9839 33.2499 20.3159ZM27.3125 21.375H15.4375V23.75H27.3125V21.375ZM24.9375 26.125H13.0625V28.5H24.9375V26.125ZM15.4375 30.875H27.3125V33.25H15.4375V30.875Z" fill="#C0F6FF"/>
</svg>
