<svg width="513" height="513" viewBox="0 0 513 513" fill="none" xmlns="http://www.w3.org/2000/svg">
<path d="M257 489.999C128.318 489.999 24 385.682 24 256.999C24 128.317 128.318 23.9995 257 23.9995C385.682 23.9995 490 128.317 490 257C490 385.682 385.682 489.999 257 489.999Z" stroke="url(#paint0_linear_388_1644)" stroke-width="30"/>
<path d="M17 256L17 258L1 258C0.447715 258 -6.78525e-08 257.552 -4.37114e-08 257C-1.95703e-08 256.447 0.447715 256 1 256L17 256Z" fill="#D9D9D9"/>
<path d="M256 496H258V512C258 512.552 257.552 513 257 513C256.448 513 256 512.552 256 512V496Z" fill="#D9D9D9"/>
<path d="M496 258L496 256L512 256C512.552 256 513 256.447 513 257C513 257.552 512.552 258 512 258L496 258Z" fill="#D9D9D9"/>
<path d="M258 17L256 17L256 1C256 0.447715 256.448 -1.35705e-07 257 -8.74228e-08C257.552 -3.91405e-08 258 0.447715 258 1L258 17Z" fill="#D9D9D9"/>
<defs>
<linearGradient id="paint0_linear_388_1644" x1="257" y1="504.999" x2="257" y2="-0.384254" gradientUnits="userSpaceOnUse">
<stop stop-color="#FFC86A"/>
<stop offset="0.389423" stop-color="#B5853B"/>
<stop offset="0.725962" stop-color="#21180D"/>
</linearGradient>
</defs>
</svg>
