<svg width="38" height="38" viewBox="0 0 38 38" fill="none" xmlns="http://www.w3.org/2000/svg">
<path fill-rule="evenodd" clip-rule="evenodd" d="M28.5 28.4491C32.5078 27.9893 35.625 24.4659 35.625 20.1875C35.625 15.5966 32.0359 11.875 27.6085 11.875C27.4377 11.875 27.2681 11.8805 27.1 11.8915C25.6097 6.40035 20.7444 2.375 14.9723 2.375C8.01502 2.375 2.375 8.22328 2.375 15.4375C2.375 21.5435 6.41532 26.671 11.875 28.1022V25.6229C7.78122 24.2596 4.75 20.2656 4.75 15.4375C4.75 9.45305 9.40713 4.75 14.9723 4.75C19.6933 4.75 23.7609 8.13442 24.8863 12.8145L24.8898 12.813C25.0488 13.4624 25.1501 14.1356 25.1879 14.8265C25.9278 14.4556 26.751 14.25 27.6085 14.25C30.6438 14.25 33.25 16.8264 33.25 20.1875C33.25 23.214 31.1368 25.6043 28.5 26.0501V28.4491ZM16.0337 33.2525C16.3213 33.2525 16.6276 33.0031 16.6275 32.6041C16.6274 32.3855 16.5524 31.9749 16.3204 31.3699C16.2279 31.1287 16.1199 30.8804 16.0008 30.6301C15.6456 31.4019 15.4393 32.0954 15.4395 32.6041C15.4396 33.0031 15.7461 33.2525 16.0337 33.2525ZM14.5971 28.2117C15.3222 26.9922 16.0315 26.125 16.0315 26.125C16.0315 26.125 16.7079 27.0221 17.4153 28.2361C18.1902 29.566 19.0021 31.2762 19.0025 32.6041C19.003 34.2739 17.6742 35.6275 16.0344 35.6275C14.3947 35.6275 13.065 34.2739 13.0645 32.6041C13.064 31.1469 13.8391 29.4867 14.5971 28.2117ZM23.7525 29.0416C23.7526 29.4406 23.4463 29.69 23.1587 29.69C22.8711 29.69 22.5646 29.4406 22.5645 29.0416C22.5643 28.5329 22.7706 27.8394 23.1258 27.0676C23.2449 27.3179 23.3529 27.5662 23.4454 27.8074C23.6774 28.4124 23.7524 28.823 23.7525 29.0416ZM23.1565 22.5625C23.1565 22.5625 22.4472 23.4297 21.7221 24.6492C20.9641 25.9242 20.189 27.5844 20.1895 29.0416C20.19 30.7114 21.5197 32.065 23.1594 32.065C24.7992 32.065 26.128 30.7114 26.1275 29.0416C26.1271 27.7137 25.3152 26.0035 24.5403 24.6736C23.8329 23.4596 23.1565 22.5625 23.1565 22.5625Z" fill="#C0F6FF"/>
</svg>
