<svg width="38" height="38" viewBox="0 0 38 38" fill="none" xmlns="http://www.w3.org/2000/svg">
<path fill-rule="evenodd" clip-rule="evenodd" d="M2.375 15.4375C2.375 20.6183 5.28364 25.0946 9.5 27.2065V24.4628C6.6621 22.5806 4.75 19.2721 4.75 15.4375C4.75 9.45305 9.40713 4.75 14.9723 4.75C19.6933 4.75 23.7609 8.13442 24.8863 12.8145L24.8898 12.813C25.0488 13.4624 25.1501 14.1356 25.1879 14.8265C25.9278 14.4556 26.751 14.25 27.6085 14.25C30.6438 14.25 33.25 16.8264 33.25 20.1875C33.25 22.2187 32.2982 23.9634 30.875 25.0259V27.7809C33.6742 26.4842 35.625 23.572 35.625 20.1875C35.625 15.5966 32.0359 11.875 27.6085 11.875C27.4377 11.875 27.2681 11.8806 27.1 11.8915C25.6097 6.40035 20.7444 2.375 14.9723 2.375C8.01502 2.375 2.375 8.22328 2.375 15.4375ZM22.2288 23.9906C22.4778 24.1344 22.8678 24.0716 23.0673 23.726C23.1765 23.5368 23.3169 23.1437 23.4186 22.5038C23.4592 22.2486 23.4897 21.9795 23.5119 21.7033C22.8183 22.194 22.2928 22.6913 22.0385 23.1319C21.8391 23.4775 21.9798 23.8468 22.2288 23.9906ZM23.5058 18.907C24.7436 18.2136 25.7916 17.8174 25.7916 17.8174C25.7916 17.8174 25.9287 18.9326 25.934 20.3376C25.9399 21.8768 25.7877 23.7638 25.1239 24.9139C24.2892 26.3601 22.4615 26.8677 21.0416 26.0476C19.6217 25.2275 19.1472 23.3903 19.9819 21.9441C20.7103 20.682 22.2118 19.6321 23.5058 18.907ZM14.3879 25.1991C14.6369 25.3429 15.027 25.2801 15.2264 24.9346C15.3357 24.7453 15.4761 24.3522 15.5778 23.7123C15.6183 23.4571 15.6489 23.1881 15.671 22.9118C14.9774 23.4025 14.4519 23.8998 14.1977 24.3404C13.9982 24.686 14.1389 25.0553 14.3879 25.1991ZM15.665 20.1156C16.9027 19.4221 17.9507 19.0259 17.9507 19.0259C17.9507 19.0259 18.0878 20.1411 18.0932 21.5461C18.099 23.0853 17.9468 24.9723 17.2831 26.1224C16.4484 27.5686 14.6206 28.0762 13.2007 27.2561C11.7808 26.436 11.3063 24.5988 12.141 23.1526C12.8694 21.8905 14.3709 20.8406 15.665 20.1156ZM25.7442 31.009C25.5447 31.3546 25.1547 31.4174 24.9056 31.2736C24.6566 31.1298 24.516 30.7604 24.7154 30.4148C24.9697 29.9743 25.4952 29.4769 26.1888 28.9862C26.1666 29.2625 26.136 29.5316 26.0955 29.7867C25.9938 30.4267 25.8534 30.8198 25.7442 31.009ZM28.4685 25.1004C28.4685 25.1004 27.4205 25.4966 26.1827 26.19C24.8887 26.915 23.3872 27.965 22.6588 29.227C21.8241 30.6733 22.2985 32.5105 23.7185 33.3306C25.1384 34.1507 26.9661 33.6431 27.8008 32.1968C28.4645 31.0468 28.6168 29.1598 28.6109 27.6206C28.6056 26.2156 28.4685 25.1004 28.4685 25.1004ZM16.9276 33.1758C17.1766 33.3196 17.5667 33.2569 17.7662 32.9113C17.8754 32.722 18.0158 32.3289 18.1175 31.689C18.158 31.4338 18.1886 31.1648 18.2107 30.8885C17.5172 31.3792 16.9917 31.8765 16.7374 32.3171C16.5379 32.6627 16.6786 33.032 16.9276 33.1758ZM18.2047 28.0923C19.4425 27.3988 20.4905 27.0026 20.4905 27.0026C20.4905 27.0026 20.6275 28.1178 20.6329 29.5228C20.6388 31.062 20.4865 32.949 19.8228 34.0991C18.9881 35.5453 17.1604 36.0529 15.7405 35.2328C14.3205 34.4127 13.8461 32.5755 14.6808 31.1293C15.4091 29.8672 16.9107 28.8173 18.2047 28.0923Z" fill="#C0F6FF"/>
</svg>
