<svg width="39" height="39" viewBox="0 0 39 39" fill="none" xmlns="http://www.w3.org/2000/svg">
<path fill-rule="evenodd" clip-rule="evenodd" d="M2.4375 15.8438C2.4375 20.6456 4.87214 24.8578 8.53125 27.2255V24.1635C6.30325 22.1656 4.875 19.2012 4.875 15.8438C4.875 9.70182 9.65469 4.875 15.3663 4.875C20.2116 4.875 24.3862 8.34849 25.5412 13.1517L25.5448 13.1502C25.708 13.8166 25.812 14.5076 25.8507 15.2167C26.6101 14.8361 27.455 14.625 28.3351 14.625C31.4502 14.625 34.125 17.2692 34.125 20.7187C34.125 23.3413 32.5789 25.4984 30.4688 26.3819V28.9603C33.9783 27.9858 36.5625 24.6652 36.5625 20.7187C36.5625 16.0071 32.879 12.1875 28.3351 12.1875C28.1598 12.1875 27.9857 12.1932 27.8131 12.2044C26.2837 6.56878 21.2903 2.4375 15.3663 2.4375C8.22594 2.4375 2.4375 8.43968 2.4375 15.8438ZM21.0313 29.8843L21.9375 29.25L21.0313 28.6157L21.2236 27.5264L20.1343 27.7187L19.5 26.8125L18.8657 27.7187L17.7764 27.5264L17.9687 28.6157L17.0625 29.25L17.9687 29.8843L17.7764 30.9736L18.8657 30.7813L19.5 31.6875L20.1343 30.7813L21.2236 30.9736L21.0313 29.8843ZM18.0721 24.375L17.166 25.0093L17.3582 26.0986L16.2689 25.9063L15.6346 26.8125L15.0004 25.9063L13.9111 26.0986L14.1033 25.0093L13.1971 24.375L14.1033 23.7407L13.9111 22.6514L15.0004 22.8437L15.6346 21.9375L16.2689 22.8437L17.3582 22.6514L17.166 23.7407L18.0721 24.375ZM17.166 34.7593L18.0721 34.125L17.166 33.4907L17.3582 32.4014L16.2689 32.5937L15.6346 31.6875L15.0004 32.5937L13.9111 32.4014L14.1033 33.4907L13.1971 34.125L14.1033 34.7593L13.9111 35.8486L15.0004 35.6563L15.6346 36.5625L16.2689 35.6563L17.3582 35.8486L17.166 34.7593ZM29.25 29.25L28.3438 29.8843L28.5361 30.9736L27.4468 30.7813L26.8125 31.6875L26.1782 30.7813L25.0889 30.9736L25.2812 29.8843L24.375 29.25L25.2812 28.6157L25.0889 27.5264L26.1782 27.7187L26.8125 26.8125L27.4468 27.7187L28.5361 27.5264L28.3438 28.6157L29.25 29.25ZM24.4785 25.0093L25.3846 24.375L24.4785 23.7407L24.6707 22.6514L23.5814 22.8437L22.9471 21.9375L22.3129 22.8437L21.2236 22.6514L21.4158 23.7407L20.5096 24.375L21.4158 25.0093L21.2236 26.0986L22.3129 25.9063L22.9471 26.8125L23.5814 25.9063L24.6707 26.0986L24.4785 25.0093ZM25.3846 34.125L24.4785 34.7593L24.6707 35.8486L23.5814 35.6563L22.9471 36.5625L22.3129 35.6563L21.2236 35.8486L21.4158 34.7593L20.5096 34.125L21.4158 33.4907L21.2236 32.4014L22.3129 32.5937L22.9471 31.6875L23.5814 32.5937L24.6707 32.4014L24.4785 33.4907L25.3846 34.125ZM13.5097 29.8843L14.4159 29.25L13.5097 28.6157L13.702 27.5264L12.6127 27.7187L11.9784 26.8125L11.3441 27.7187L10.2548 27.5264L10.4471 28.6157L9.5409 29.25L10.4471 29.8843L10.2548 30.9736L11.3441 30.7813L11.9784 31.6875L12.6127 30.7813L13.702 30.9736L13.5097 29.8843Z" fill="#C0F6FF"/>
</svg>
