<svg width="38" height="38" viewBox="0 0 38 38" fill="none" xmlns="http://www.w3.org/2000/svg">
<path fill-rule="evenodd" clip-rule="evenodd" d="M2.375 15.4375C2.375 21.0917 5.83956 25.9069 10.6875 27.7249V25.1401C7.20849 23.4572 4.75 19.7856 4.75 15.4375C4.75 9.45305 9.40713 4.75 14.9723 4.75C19.6933 4.75 23.7609 8.13442 24.8863 12.8145L24.8898 12.813C25.0488 13.4624 25.1501 14.1356 25.1879 14.8265C25.9278 14.4556 26.751 14.25 27.6085 14.25C30.6438 14.25 33.25 16.8264 33.25 20.1875C33.25 23.525 30.6802 26.0888 27.6723 26.1246V26.125H27.3125V28.4944C27.4107 28.4981 27.5094 28.5 27.6085 28.5C32.0359 28.5 35.625 24.7783 35.625 20.1875C35.625 15.5966 32.0359 11.875 27.6085 11.875C27.4377 11.875 27.2681 11.8805 27.1 11.8915C25.6097 6.40035 20.7444 2.375 14.9723 2.375C8.01502 2.375 2.375 8.22328 2.375 15.4375ZM20.387 19.5288L15.6369 26.6538L14.4061 28.5H16.625H20.24L16.454 33.7422L18.3793 35.1328L23.5252 28.0078L24.885 26.125H22.5625H18.8439L22.3631 20.8462L20.387 19.5288ZM24.1786 31.9728C23.932 32.5503 23.7511 33.1678 23.7512 33.7358C23.7516 34.7792 24.5493 35.625 25.5331 35.625C26.5168 35.625 27.3141 34.7792 27.3137 33.7358C27.3136 33.2047 27.1139 32.5756 26.8482 31.9737C26.3201 30.777 25.5312 29.6875 25.5312 29.6875C25.5312 29.6875 24.7052 30.7392 24.1786 31.9728ZM10.6887 33.7358C10.6886 33.1678 10.8695 32.5503 11.1161 31.9728C11.6427 30.7392 12.4688 29.6875 12.4688 29.6875C12.4688 29.6875 13.2576 30.777 13.7857 31.9737C14.0514 32.5756 14.2511 33.2047 14.2512 33.7358C14.2516 34.7792 13.4543 35.625 12.4706 35.625C11.4868 35.625 10.6891 34.7792 10.6887 33.7358Z" fill="#C0F6FF"/>
</svg>
