<svg width="38" height="38" viewBox="0 0 38 38" fill="none" xmlns="http://www.w3.org/2000/svg">
<path fill-rule="evenodd" clip-rule="evenodd" d="M20.9428 2.375V5.26672H23.3178V2.375H20.9428ZM35.625 14.6822H32.7333L32.7333 17.0572H35.625V14.6822ZM30.719 9.53979L33.2233 8.09393L34.4108 10.1507L31.9065 11.5966L30.719 9.53979ZM27.8493 3.58916L26.4035 6.09346L28.4603 7.28096L29.9061 4.77666L27.8493 3.58916ZM15.8004 7.28096L14.3546 4.77666L16.4114 3.58916L17.8573 6.09346L15.8004 7.28096ZM35.625 27.0156C35.625 23.4217 33.4988 20.342 30.4781 19.0525C30.8524 18.063 31.0574 16.9902 31.0574 15.8695C31.0574 10.9009 27.0295 6.87306 22.0609 6.87306C19.4264 6.87306 17.0565 8.00544 15.4111 9.81001C15.2231 9.80128 15.0339 9.79688 14.8438 9.79688C7.95745 9.79688 2.375 15.5787 2.375 22.7109C2.375 29.8432 7.95745 35.625 14.8438 35.625C14.9219 35.625 15 35.6243 15.0778 35.6228V35.625H27.3064L27.3125 35.625L27.3186 35.625H27.5991V35.62C32.0573 35.4635 35.625 31.6711 35.625 27.0156ZM28.6824 15.8695C28.6824 16.7851 28.4965 17.6574 28.1605 18.4505C27.8817 18.4212 27.5988 18.4062 27.3125 18.4062C27.077 18.4062 26.8438 18.4164 26.6132 18.4363C25.2992 14.5552 22.2462 11.5211 18.4222 10.3366C19.4664 9.64851 20.7169 9.24806 22.0609 9.24806C25.7178 9.24806 28.6824 12.2126 28.6824 15.8695ZM14.8438 33.25L14.8925 33.2499L15.0778 33.25L27.3093 33.25H27.3125L27.3176 33.25C30.5167 33.2471 33.25 30.5362 33.25 27.0156C33.25 23.4932 30.5138 20.7812 27.3125 20.7812C26.4454 20.7812 25.6125 20.9802 24.8588 21.3403C24.7563 20.5247 24.5634 19.7384 24.2909 18.9927L24.2935 18.9917C22.8438 14.9737 19.1155 12.1719 14.8438 12.1719C9.34699 12.1719 4.75 16.8111 4.75 22.7109C4.75 28.6107 9.34699 33.25 14.8438 33.25Z" fill="#C0F6FF"/>
</svg>
